<?xml version="1.0" encoding="UTF-8"?><svg xmlns="http://www.w3.org/2000/svg" xmlns:xlink="http://www.w3.org/1999/xlink" height="226.8" preserveAspectRatio="xMidYMid meet" version="1.0" viewBox="112.9 99.2 199.5 226.8" width="199.5" zoomAndPan="magnify"><g><g id="change1_1"><path d="M 263.3125 132.589844 L 239.210938 99.214844 L 215.101562 132.589844 L 228.082031 132.589844 L 228.082031 325.984375 L 249.753906 325.984375 L 249.753906 132.589844 L 263.3125 132.589844" fill="#4bbc39"/></g><g id="change1_2"><path d="M 199.277344 171.324219 L 199.277344 325.984375 L 220.953125 325.984375 L 220.953125 171.324219 L 199.277344 171.324219" fill="#4bbc39"/></g><g id="change1_3"><path d="M 170.476562 211.796875 L 170.476562 325.984375 L 192.148438 325.984375 L 192.148438 211.796875 L 170.476562 211.796875" fill="#4bbc39"/></g><g id="change1_4"><path d="M 141.671875 252.269531 L 141.671875 325.984375 L 163.347656 325.984375 L 163.347656 252.269531 L 141.671875 252.269531" fill="#4bbc39"/></g><g id="change1_5"><path d="M 112.871094 286.957031 L 112.871094 325.984375 L 134.542969 325.984375 L 134.542969 286.957031 L 112.871094 286.957031" fill="#4bbc39"/></g><g id="change2_1"><path d="M 312.332031 275.148438 C 312.332031 302.390625 290.242188 324.476562 263 324.476562 C 235.757812 324.476562 213.671875 302.390625 213.671875 275.148438 C 213.671875 247.902344 235.757812 225.816406 263 225.816406 C 290.242188 225.816406 312.332031 247.902344 312.332031 275.148438" fill="#f78f34"/></g><g id="change3_1"><path d="M 301.238281 275.148438 C 301.238281 296.265625 284.117188 313.382812 263 313.382812 C 241.882812 313.382812 224.765625 296.265625 224.765625 275.148438 C 224.765625 254.03125 241.882812 236.914062 263 236.914062 C 284.117188 236.914062 301.238281 254.03125 301.238281 275.148438" fill="#fabb35"/></g><path d="M 2757.695312 1630.046875 C 2757.695312 1630.046875 2750.664062 1711.765625 2643.046875 1719.8125 C 2557.304688 1726.21875 2506.015625 1695.90625 2497.109375 1638.640625 C 2497.109375 1638.640625 2484.882812 1556.84375 2535.9375 1530.476562 C 2596.25 1499.265625 2762.96875 1495.28125 2764.726562 1384.34375 C 2764.726562 1384.34375 2771.5625 1285.789062 2634.375 1285.789062 C 2634.375 1285.789062 2502.070312 1282.273438 2495.234375 1365.046875" fill="none" stroke="#f78f34" stroke-linecap="round" stroke-miterlimit="10" stroke-width="63.361" transform="matrix(.1 0 0 -.1 0 425.2)"/><path d="M 2572.929688 1790.945312 L 2572.929688 1715.28125" fill="none" stroke="#f78f34" stroke-linecap="round" stroke-miterlimit="10" stroke-width="63.361" transform="matrix(.1 0 0 -.1 0 425.2)"/><path d="M 2669.6875 1790.945312 L 2669.6875 1715.28125" fill="none" stroke="#f78f34" stroke-linecap="round" stroke-miterlimit="10" stroke-width="63.361" transform="matrix(.1 0 0 -.1 0 425.2)"/><path d="M 2581.601562 1285.789062 L 2581.601562 1210.085938" fill="none" stroke="#f78f34" stroke-linecap="round" stroke-miterlimit="10" stroke-width="63.361" transform="matrix(.1 0 0 -.1 0 425.2)"/><path d="M 2678.398438 1285.789062 L 2678.398438 1210.085938" fill="none" stroke="#f78f34" stroke-linecap="round" stroke-miterlimit="10" stroke-width="63.361" transform="matrix(.1 0 0 -.1 0 425.2)"/></g></svg>