<?xml version="1.0" encoding="UTF-8" standalone="no"?><svg xmlns="http://www.w3.org/2000/svg" xmlns:xlink="http://www.w3.org/1999/xlink" fill="#000000" height="488" preserveAspectRatio="xMidYMid meet" version="1" viewBox="0.0 0.0 464.8 488.0" width="464.8" zoomAndPan="magnify"><g><g fill="#00bf63" id="change1_1"><path d="M389.6,265.6l-39.5-28.3l-13.5,18.9l39.5,28.4c41,29.3,65.4,76.9,65.4,127.3v41.4 c0,6.4-5.2,11.6-11.6,11.6h-395c-6.4,0-11.6-5.2-11.6-11.6v-43.7c0-49,23.4-95.8,62.6-125.3l40.3-30.3l-14-18.6l-40.3,30.3 C26.9,299.4,0,353.2,0,409.5v43.7C0,472.4,15.6,488,34.9,488h395c19.2,0,34.9-15.6,34.9-34.9v-41.4 C464.8,353.9,436.7,299.3,389.6,265.6z" fill="inherit"/><path d="M232.4,255.6c70.5,0,127.8-57.3,127.8-127.8S302.9,0,232.4,0S104.6,57.3,104.6,127.8 S161.9,255.6,232.4,255.6z M232.4,23.2C290,23.2,337,70.2,337,127.8S290,232.4,232.4,232.4s-104.6-46.9-104.6-104.6 S174.7,23.2,232.4,23.2z" fill="inherit"/></g></g></svg>