<?xml version="1.0" encoding="UTF-8"?><svg xmlns="http://www.w3.org/2000/svg" xmlns:xlink="http://www.w3.org/1999/xlink" data-name="Layer 1" height="42.0" preserveAspectRatio="xMidYMid meet" version="1.0" viewBox="2.0 3.0 43.0 42.0" width="43.0" zoomAndPan="magnify"><g id="change1_1"><rect fill="#446c9e" height="32" rx="2" width="34" x="7" y="9"/></g><g id="change2_1"><path d="M15 9H31V13H15z" fill="#98d6fc"/></g><g id="change3_1"><path d="M14,5H4A2,2,0,0,0,2,7v8a2,2,0,0,0,2,2H14a2,2,0,0,0,2-2V7A2,2,0,0,0,14,5Z" fill="#fbe639"/></g><g id="change4_1"><path d="M45,5v9a2,2,0,0,1-2,2H32a2,2,0,0,1-2-2V5a2,2,0,0,1,2-2H43A2,2,0,0,1,45,5Z" fill="#f47f8f"/></g><g id="change2_2"><path d="M44,36v7a2,2,0,0,1-2,2H33a2,2,0,0,1-2-2V36a2,2,0,0,1,2-2h9A2,2,0,0,1,44,36Z" fill="#98d6fc"/></g><g id="change4_2"><path d="M12.59,13.28,10.9,11.6A3.12,3.12,0,0,0,10.29,8a3.21,3.21,0,0,0-2.23-.91,3.07,3.07,0,0,0-2.19.94A3.16,3.16,0,0,0,5,10.29a3.16,3.16,0,0,0,3.14,3.1h0A3.28,3.28,0,0,0,9.51,13l1.68,1.66a1,1,0,1,0,1.4-1.42ZM8.11,11.39h0a1.12,1.12,0,0,1-.8-.34A1.08,1.08,0,0,1,7,10.27a1.14,1.14,0,0,1,.34-.81,1.12,1.12,0,0,1,.78-.34h0a1.15,1.15,0,0,1,.8.33h0a1.13,1.13,0,0,1,0,1.6A1.12,1.12,0,0,1,8.11,11.39Z" fill="#f47f8f"/></g><g id="change4_3"><path d="M31,18H28.41a1,1,0,0,0-.64.23L24.62,21H13.16a1.49,1.49,0,0,0-1.49,1.49S14.14,30,15,30h8v3H15.5A2.5,2.5,0,1,0,18,35.5,2.73,2.73,0,0,0,18,35h3.1a2.73,2.73,0,0,0-.05.5,2.5,2.5,0,1,0,4-2v-3.9c1-1.53,2.87-7.12,2.87-7.12a1.49,1.49,0,0,0-.59-1.18L28.77,20H31a1,1,0,0,0,0-2ZM16,35.5a.5.5,0,1,1-.5-.5A.5.5,0,0,1,16,35.5Zm7.5.5a.5.5,0,1,1,.5-.5A.5.5,0,0,1,23.5,36Z" fill="#f47f8f"/></g><g id="change5_1"><path d="M17,28a1,1,0,0,1-.95-.68l-1-3a1,1,0,0,1,1.9-.64l1,3A1,1,0,0,1,17.32,28,1.25,1.25,0,0,1,17,28Z" fill="#f8f6f7"/></g><g id="change5_2"><path d="M23,28a1.25,1.25,0,0,1-.32-.05,1,1,0,0,1-.63-1.27l1-3a1,1,0,1,1,1.9.64l-1,3A1,1,0,0,1,23,28Z" fill="#f8f6f7"/></g><g id="change5_3"><path d="M20,28a1,1,0,0,1-1-1V24a1,1,0,0,1,2,0v3A1,1,0,0,1,20,28Z" fill="#f8f6f7"/></g><g id="change5_4"><path d="M38.19,7h.28a.21.21,0,0,1,.2.19,1,1,0,0,0,2,0A2.2,2.2,0,0,0,38.47,5h-.28A2.19,2.19,0,0,0,36,7.19V9H35a1,1,0,0,0,0,2h1v2a1,1,0,0,0,2,0V11h1a1,1,0,0,0,0-2H38V7.19A.2.2,0,0,1,38.19,7Z" fill="#f8f6f7"/></g><g id="change2_3"><path d="M37,24H32a1,1,0,0,1,0-2h5a1,1,0,0,1,0,2Z" fill="#98d6fc"/></g><g id="change2_4"><path d="M35,28H30a1,1,0,0,1,0-2h5a1,1,0,0,1,0,2Z" fill="#98d6fc"/></g><g id="change2_5"><path d="M33,32H28a1,1,0,0,1,0-2h5a1,1,0,0,1,0,2Z" fill="#98d6fc"/></g><g id="change5_5"><path d="M37.35,41.27a.94.94,0,0,1-.58-.19l-3.32-2.39a1,1,0,0,1,1.16-1.62l2.74,2,2.73-2a1,1,0,0,1,1.39.22,1,1,0,0,1-.22,1.4l-3.32,2.39A1,1,0,0,1,37.35,41.27Z" fill="#f8f6f7"/></g></svg>